<svg xmlns="http://www.w3.org/2000/svg" id="schematicSVG" width="800" height="560" viewBox="0 0 800 560" style="">

    <style type="text/css">


.grid line {
stroke: lightgrey;
stroke-opacity: 0.7;
shape-rendering: crispEdges;
}
.grid path {
stroke-width: 0;
}
.gridVFD line {
stroke: black;
stroke-opacity: 0.5;
}
.gridVFD path {
stroke-width: 0;
}
.gaugeLine {
fill: none;
stroke: black;
stroke-width: 1;
}
.axisRed line{
stroke: red;
}
.axisRed path{
stroke: red;
}
.axisBlue line{
stroke: blue;
}
.axisBlue path{
stroke: blue;
}
.axisPurple line{
stroke: purple;
}
.axisPurple path{
stroke: purple;
}
.chartLineLeft {
fill: none;
stroke: DarkViolet;
stroke-width: 3;
}
.chartLineRight2 {
fill: none;
stroke: red;
stroke-width: 3;
}
.chartLineRight1 {
fill: none;
stroke: blue;
stroke-width: 3;
}
.chartLineCI {
fill: none;
stroke: purple;
stroke-width: 3;
}
.chartLineVAC {
fill: none;
stroke: red;
stroke-width: 3;
}
.chartLineHZ {
fill: none;
stroke: blue;
stroke-width: 3;
}
.axisred line{
stroke: red;
}
.axisred path{
stroke: red;
}
.axisBlue line{
stroke: blue;
}
.axisBlue path{
stroke: blue;
}
.axisDarkViolet line{
stroke: DarkViolet;
}
.axisDarkViolet path{
stroke: DarkViolet;
}

.ticks-automanual {
  font: 10px sans-serif;
}

.track,
.track-inset,
.track-overlay {
  stroke-linecap: round;
}

.track {
  stroke: #000;
  stroke-opacity: 0.3;
  stroke-width: 12px;
}

.track-inset {
  stroke: #ddd;
  stroke-width: 8px;
}

.track-overlay {
  pointer-events: stroke;
  stroke-width: 50px;
  stroke: transparent;

}

.handle {

  stroke: #000;
  stroke-opacity: 0.5;
  stroke-width: 1.25px;
}


</style>

<defs id="endArrowDefs">
<marker id="endArrow" viewBox="0 0 8000 8000" vector-effect="non-scaling-stroke" refX="250" refY="150" markerUnits="strokeWidth" markerWidth="300" markerHeight="300" orient="auto" fill="violet" stroke-linejoin="bevel">
<path d="M2 59,293 148,1 243,121 151,Z" stroke="RGB(0,0,0)">
<marker id="cloneArrow" viewBox="0 0 8000 8000" vector-effect="non-scaling-stroke" refX="250" refY="150" markerUnits="strokeWidth" markerWidth="300" markerHeight="300" orient="auto" fill="#000000" stroke-linejoin="bevel">
<path d="M2 59,293 148,1 243,121 151,Z" stroke="RGB(0,0,0)"/>
</marker>
</path>
</marker>
</defs>
<defs id="pilotLightDefs">
<radialGradient id="blueGradient" cx="50%" cy="50%" r="75%">
<stop offset="0%" stop-color="rgb(0,0,255)" stop-opacity="1"/>
<stop offset="100%" stop-color="rgb(0,0,0)" stop-opacity="1"/>
</radialGradient>
<radialGradient id="greenGradient" cx="50%" cy="50%" r="75%">
<stop offset="0%" stop-color="rgb(0,191,0)" stop-opacity="1"/>
<stop offset="100%" stop-color="rgb(0,0,0)" stop-opacity="1"/>
</radialGradient>
<radialGradient id="greyGradient" cx="50%" cy="50%" r="75%">
<stop offset="0%" stop-color="rgb(255,255,255)" stop-opacity="1"/>
<stop offset="100%" stop-color="rgb(0,0,0)" stop-opacity="1"/>
</radialGradient>
<radialGradient id="redGradient" cx="50%" cy="50%" r="75%">
<stop offset="0%" stop-color="rgb(255,0,0)" stop-opacity="1"/>
<stop offset="100%" stop-color="rgb(0,0,0)" stop-opacity="1"/>
</radialGradient>
<radialGradient id="violetGradient" cx="50%" cy="50%" r="75%">
<stop offset="0%" stop-color="rgb(219,0,219)" stop-opacity="1"/>
<stop offset="100%" stop-color="rgb(0,0,0)" stop-opacity="1"/>
</radialGradient>
<radialGradient id="aquaGradient" cx="50%" cy="50%" r="75%">
<stop offset="0%" stop-color="aqua" stop-opacity="1"/>
<stop offset="100%" stop-color="rgb(0,0,0)" stop-opacity="1"/>
</radialGradient>
</defs>
<defs id="arrowDefs">
<marker id="arrow9400D3" viewBox="0 0 8000 8000" vector-effect="non-scaling-stroke" refX="250" refY="150" markerUnits="strokeWidth" markerWidth="300" markerHeight="300" orient="auto" fill="#9400D3" stroke-linejoin="bevel">
<path d="M2 59,293 148,1 243,121 151,Z" stroke="RGB(0,0,0)"/>
</marker>
<marker id="arrowEEE8AA" viewBox="0 0 8000 8000" vector-effect="non-scaling-stroke" refX="250" refY="150" markerUnits="strokeWidth" markerWidth="300" markerHeight="300" orient="auto" fill="#EEE8AA" stroke-linejoin="bevel">
<path d="M2 59,293 148,1 243,121 151,Z" stroke="RGB(0,0,0)"/>
</marker>
<marker id="arrowFF7F50" viewBox="0 0 8000 8000" vector-effect="non-scaling-stroke" refX="250" refY="150" markerUnits="strokeWidth" markerWidth="300" markerHeight="300" orient="auto" fill="#FF7F50" stroke-linejoin="bevel">
<path d="M2 59,293 148,1 243,121 151,Z" stroke="RGB(0,0,0)"/>
</marker>
</defs>
<defs id="defsPattern"/>
<defs id="defsGradient"/>
<defs id="defsShadow">
<filter id="drop-shadow" height="150%" width="150%">
<feGaussianBlur in="SourceAlpha" stdDeviation="5" result="blur"/>
<feOffset in="blur" dx="5" dy="5" result="offsetBlur"/>
<feMerge>
<feMergeNode in="offsetBlur"/>
<feMergeNode in="SourceGraphic"/>
</feMerge>
</filter>
</defs>
<defs id="pipe3dDefs">
<filter id="pipe3D">
<feFlood flood-color="black"/>
<feComposite operator="out" in2="SourceGraphic"/>
<feGaussianBlur stdDeviation="6"/>
<feComposite operator="atop" in2="SourceGraphic"/>
</filter>
</defs>
<defs id="alarmWarningTrendDefs">
<linearGradient id="warningMaxTrend" x1="84%" y1="24%" x2="82%" y2="72%">
<stop offset="0%" stop-color="#FF0000" stop-opacity="1"/>
<stop offset="100%" stop-color="#FFA500" stop-opacity="1" stop-offset="100%"/>
</linearGradient>
<linearGradient id="warningMinTrend" x1="84%" y1="24%" x2="82%" y2="72%">
<stop offset="0%" stop-color="#FFA500" stop-opacity="1" stop-offset="0%"/>
<stop offset="100%" stop-color="#FF0000" stop-opacity="1"/>
</linearGradient>
</defs>
<defs id="alarmWarningBarDefs">
<linearGradient id="warningMaxBar" y1="84%" x1="24%" y2="82%" x2="72%">
<stop offset="0" stop-color="#FFA500" stop-opacity="1"/>
<stop offset="100%" stop-color="#FF0000" stop-opacity="1" stop-offset="100%"/>
</linearGradient>
<linearGradient id="warningMinBar" y2="84%" x2="24%" y1="82%" x1="72%">
<stop offset="0" stop-color="#FFA500" stop-opacity="1"/>
<stop offset="100%" stop-color="#FF0000" stop-opacity="1" stop-offset="100%"/>
</linearGradient>
</defs>
<defs id="alarmWarningTankLevelDefs">
<linearGradient id="warningMaxTankLevel" x1="84%" y1="24%" x2="82%" y2="72%">
<stop offset="0%" stop-color="#FF0000" stop-opacity="1"/>
<stop offset="100%" stop-color="#FFA500" stop-opacity="1" stop-offset="100%"/>
</linearGradient>
<linearGradient id="warningMinTankLevel" x1="84%" y1="24%" x2="82%" y2="72%">
<stop offset="0%" stop-color="#FFA500" stop-opacity="1" stop-offset="0%"/>
<stop offset="100%" stop-color="#FF0000" stop-opacity="1"/>
</linearGradient>
</defs>
<g id="zoomG">
<g id="domElemG" shape-rendering="geometricPrecision" text-rendering="geometricPrecision">
<path id="path1550092398015" fill="none" fill-opacity="1.0" stroke="#FF7F50" stroke-width="7" filter="url(#pipe3D)" stroke-linejoin="round" d="M 346 318 L 492 317" type="linear" marker-end="url(#arrowFF7F50)" stroke-opacity="0.8" rotateAngle="0" class="pathElem"/>
<g title="Horizontal Pump" parentid="" nativewidth="154" nativeheight="106" myscale="0.75" transform="matrix(0.75 0 0 0.75 664.75 286.75)" id="process1550092160389" class="processElem">
<svg xmlns:xlink="http://www.w3.org/1999/xlink" xmlns="http://www.w3.org/2000/svg" title="Horizontal Pump" class="Pumps" height="106" width="154" viewBox="0 0 154 105.947" nativewidth="154" nativeheight="106" overflow="visible" myscale="1.0">

    <defs>

        <linearGradient x1="0%" y2="0%" x2="100%" y1="0%" id="lg1_219">

            <stop stop-color="#9aa1aa" offset="0"/>

            <stop stop-color="#aeb5c0" offset="0.22"/>

            <stop stop-color="#dce0e5" offset="0.57"/>

            <stop stop-color="#cacfd7" offset="0.84"/>

            <stop stop-color="#a7afb9" offset="1"/>

        </linearGradient>

        <linearGradient x1="0%" y2="0%" x2="100%" y1="0%" id="lg2_219">

            <stop stop-color="#8f969d" offset="0"/>

            <stop stop-color="#d3d8de" offset="0.64"/>

            <stop stop-color="#9aa0a8" offset="1"/>

        </linearGradient>

        <linearGradient x1="0%" y2="0%" x2="100%" y1="0%" id="lg3_219">

            <stop stop-color="#626974" offset="0"/>

            <stop stop-color="#ccd0d5" offset="0.66"/>

            <stop stop-color="#5e6670" offset="1"/>

        </linearGradient>

        <radialGradient fy="51" r="72.6" id="rg1" cy="51" cx="51" gradientUnits="userSpaceOnUse" fx="51">

            <stop stop-color="#c7cbd1" offset="0"/>

            <stop stop-color="#c4c7cd" offset="0.91"/>

            <stop stop-color="#d4d8dd" offset="0.74"/>

            <stop stop-color="#b6bcc4" offset="0.54"/>

        </radialGradient>

    </defs>

    <g transform="matrix(-1,0,0,1,153,1)">

        <g transform="matrix(-1,0,0,1,74.4,31.2)">

            <path transform="matrix(0,-1,-1,0,68.3,40.6)" id="shape1" fill="url(#lg1_219)" d="M0,0L39.1,0L39.1,68.3L0,68.3L0,0z"/>

            <path transform="matrix(0,-1,-1,0,74.4,42.9)" id="shape2" fill="url(#lg2_219)" d="M1.4,-0L41.5,-0C42.2,-0,42.9,1.3,42.9,3C42.9,4.7,42.2,6.1,41.5,6.1L1.4,6.1C.6,6.1,0,4.7,0,3C0,1.3,.6,-0,1.4,-0z"/>

            <path transform="matrix(0,-1,-1,0,70.3,42.7)" id="shape3" fill="url(#lg3_219)" d="M42.5,0C42.4,1.1,41.9,1.9,41.1,1.9L1.4,1.9C.6,1.9,.1,1,0,0C0,0,42.5,0,42.5,0z"/>

            <path transform="matrix(0,-1,-1,0,74.1,42.2)" id="shape4" fill="#ffffff" fill-opacity="0.32" d="M.7,0L40.8,0C41.2,0,41.5,.3,41.5,.6C41.5,.9,41.2,1.1,40.8,1.1L.7,1.1C.3,1.1,0,.9,0,.6C0,.3,.3,0,.7,0z"/>

        </g>

        <g transform="translate(77.55,0)">

            <path transform="matrix(0,-1,-1,0,68.3,40.7)" id="shape5" fill="url(#lg1_219)" d="M0,0L39.1,0L39.1,68.3L0,68.3L0,0z"/>

            <path transform="matrix(0,-1,-1,0,74.4,42.9)" id="shape6" fill="url(#lg2_219)" d="M1.4,-0L41.5,-0C42.2,-0,42.9,1.3,42.9,3C42.9,4.7,42.2,6.1,41.5,6.1L1.4,6.1C.6,6.1,0,4.7,0,3C0,1.3,.6,-0,1.4,-0z"/>

            <path transform="matrix(0,-1,-1,0,70.3,42.7)" id="shape7" fill="url(#lg3_219)" d="M42.5,0C42.4,1.1,41.9,1.9,41.1,1.9L1.4,1.9C.6,1.9,.1,1,0,0C0,0,42.5,0,42.5,0z"/>

            <path transform="matrix(0,-1,-1,0,74.1,42.2)" id="shape8" fill="#ffffff" fill-opacity="0.35" d="M.7,0L40.8,0C41.2,0,41.5,.3,41.5,.6C41.5,.9,41.2,1.1,40.8,1.1L.7,1.1C.3,1.1,0,.9,0,.6C0,.3,.3,0,.7,0z"/>

        </g>

        <g transform="translate(26.19,1.31)">

            <path transform="matrix(0,-1,-1,0,102.8,102.6)" id="shape9" fill="url(#rg1)" stroke="#d4d6db" stroke-width="0.25" d="M0,51.4C0,23,23,0,51.3,0C79.7,0,102.6,23,102.6,51.4C102.6,79.8,79.7,102.8,51.3,102.8C23,102.8,0,79.8,0,51.4z"/>

            <path transform="matrix(0,-1,-1,0,94.2,94)" id="shape10" fill="#ffffff" fill-opacity="0.27" d="M0,42.7C0,19.1,19.1,0,42.6,0C66.2,0,85.3,19.1,85.3,42.7C85.3,66.3,66.2,85.5,42.6,85.5C19.1,85.5,0,66.3,0,42.7z"/>

            <path transform="matrix(0,-1,-1,0,85.9,93.9)" id="shape11" fill="#ffffff" fill-opacity="0.13" d="M0,34.5C-0.3,13,17.1,0,17.1,0L73.1,63.9C73.1,63.9,62.3,77.3,42.6,77.3C19.1,77.3,0,58.1,0,34.5z"/>

        </g>

    </g>

</svg>
<rect width="154" height="106" stroke="none" stroke-width="2" fill="white" fill-opacity="0" style="cursor: default;" onmousedown="editProcess(process1550092160389, evt)"/>
</g>
<g title="Flat Vessel 1" parentid="" nativewidth="120" nativeheight="154" myscale="1.45" transform="matrix(1.45 0 0 1.45 493 165)" id="process1550092173553" class="processElem">
<svg xmlns:xlink="http://www.w3.org/1999/xlink" xmlns="http://www.w3.org/2000/svg" title="Flat Vessel 1" class="Tanks" height="154" width="120" viewBox="0 0 120 153.998" nativewidth="120" nativeheight="154" overflow="visible" myscale="1.0">

    <defs>

        <linearGradient x1="100%" y2="0%" x2="0%" y1="0%" id="lg1_247">

            <stop stop-color="#a0b8c3" offset="0"/>

            <stop stop-color="#d4f1fe" offset="0.15"/>

            <stop stop-color="#e7f7fe" offset="0.25"/>

            <stop stop-color="#b7d2de" offset="0.44"/>

            <stop stop-color="#a2bbc6" offset="0.6"/>

            <stop stop-color="#899ea7" offset="0.8"/>

            <stop stop-color="#7d9099" offset="0.97"/>

        </linearGradient>

        <linearGradient x1="116" y2="-7" x2="2" y1="35" id="lg2_247" gradientUnits="userSpaceOnUse">

            <stop stop-color="#80a1b0" offset="0"/>

            <stop stop-color="#afd5e8" offset="0.15"/>

            <stop stop-color="#d5e8f2" offset="0.25"/>

            <stop stop-color="#93b8c9" offset="0.44"/>

            <stop stop-color="#82a3b3" offset="0.6"/>

            <stop stop-color="#6d8997" offset="0.8"/>

            <stop stop-color="#637d8a" offset="0.97"/>

        </linearGradient>

        <linearGradient x1="100%" y2="0%" x2="0%" y1="0%" id="lg3_247">

            <stop stop-color="#80a1b0" offset="0"/>

            <stop stop-color="#afd5e8" offset="0.15"/>

            <stop stop-color="#d5e8f2" offset="0.25"/>

            <stop stop-color="#93b8c9" offset="0.44"/>

            <stop stop-color="#82a3b3" offset="0.6"/>

            <stop stop-color="#6d8997" offset="0.8"/>

            <stop stop-color="#637d8a" offset="0.97"/>

        </linearGradient>

    </defs>

    <g transform="translate(1,1)">

        <path transform="translate(0,0)" id="shape1" fill="url(#lg1_247)" d="M0,19.2C0,19.2,.5,0,59,0C117.6,0,118,19.2,118,19.2L118,123.9L0,123.9L0,19.2z"/>

        <path transform="translate(0,123.8)" id="shape2" fill="url(#lg2_247)" d="M0,0L118,0L86.4,28.2L31.6,28.2L0,0z"/>

        <path transform="translate(0,19.08)" id="shape3" fill="url(#lg3_247)" d="M0,0L118,0L118,1.7L0,1.7L0,0z"/>

    </g>

</svg>
<rect width="120" height="154" stroke="orange" stroke-width="2" fill="white" fill-opacity="0" style="cursor: move;"/>
</g>
<g title="Flat Vessel 1" parentid="" nativewidth="120" nativeheight="154" myscale="1.45" transform="matrix(1.45 0 0 1.45 64.5 156.5)" id="component1550092233431" class="processElem">
<svg xmlns:xlink="http://www.w3.org/1999/xlink" xmlns="http://www.w3.org/2000/svg" title="Flat Vessel 1" class="Tanks" height="154" width="120" viewBox="0 0 120 153.998" nativewidth="120" nativeheight="154" overflow="visible" myscale="1.0">

    <defs>

        <linearGradient x1="100%" y2="0%" x2="0%" y1="0%" id="lg1_247">

            <stop stop-color="#a0b8c3" offset="0"/>

            <stop stop-color="#d4f1fe" offset="0.15"/>

            <stop stop-color="#e7f7fe" offset="0.25"/>

            <stop stop-color="#b7d2de" offset="0.44"/>

            <stop stop-color="#a2bbc6" offset="0.6"/>

            <stop stop-color="#899ea7" offset="0.8"/>

            <stop stop-color="#7d9099" offset="0.97"/>

        </linearGradient>

        <linearGradient x1="116" y2="-7" x2="2" y1="35" id="lg2_247" gradientUnits="userSpaceOnUse">

            <stop stop-color="#80a1b0" offset="0"/>

            <stop stop-color="#afd5e8" offset="0.15"/>

            <stop stop-color="#d5e8f2" offset="0.25"/>

            <stop stop-color="#93b8c9" offset="0.44"/>

            <stop stop-color="#82a3b3" offset="0.6"/>

            <stop stop-color="#6d8997" offset="0.8"/>

            <stop stop-color="#637d8a" offset="0.97"/>

        </linearGradient>

        <linearGradient x1="100%" y2="0%" x2="0%" y1="0%" id="lg3_247">

            <stop stop-color="#80a1b0" offset="0"/>

            <stop stop-color="#afd5e8" offset="0.15"/>

            <stop stop-color="#d5e8f2" offset="0.25"/>

            <stop stop-color="#93b8c9" offset="0.44"/>

            <stop stop-color="#82a3b3" offset="0.6"/>

            <stop stop-color="#6d8997" offset="0.8"/>

            <stop stop-color="#637d8a" offset="0.97"/>

        </linearGradient>

    </defs>

    <g transform="translate(1,1)">

        <path transform="translate(0,0)" id="shape1" fill="url(#lg1_247)" d="M0,19.2C0,19.2,.5,0,59,0C117.6,0,118,19.2,118,19.2L118,123.9L0,123.9L0,19.2z"/>

        <path transform="translate(0,123.8)" id="shape2" fill="url(#lg2_247)" d="M0,0L118,0L86.4,28.2L31.6,28.2L0,0z"/>

        <path transform="translate(0,19.08)" id="shape3" fill="url(#lg3_247)" d="M0,0L118,0L118,1.7L0,1.7L0,0z"/>

    </g>

</svg>
<rect width="120" height="154" stroke="none" stroke-width="2" fill="white" fill-opacity="0" style="cursor: default;" onmousedown="editProcess(component1550092233431, evt)"/>
</g>
<g title="Horizontal Pump" parentid="" nativewidth="154" nativeheight="106" myscale="0.75" transform="matrix(0.75 0 0 0.75 234.25 277.25)" id="component1550092257640" class="processElem">
<svg xmlns:xlink="http://www.w3.org/1999/xlink" xmlns="http://www.w3.org/2000/svg" title="Horizontal Pump" class="Pumps" height="106" width="154" viewBox="0 0 154 105.947" nativewidth="154" nativeheight="106" overflow="visible" myscale="1.0">

    <defs>

        <linearGradient x1="0%" y2="0%" x2="100%" y1="0%" id="lg1_219">

            <stop stop-color="#9aa1aa" offset="0"/>

            <stop stop-color="#aeb5c0" offset="0.22"/>

            <stop stop-color="#dce0e5" offset="0.57"/>

            <stop stop-color="#cacfd7" offset="0.84"/>

            <stop stop-color="#a7afb9" offset="1"/>

        </linearGradient>

        <linearGradient x1="0%" y2="0%" x2="100%" y1="0%" id="lg2_219">

            <stop stop-color="#8f969d" offset="0"/>

            <stop stop-color="#d3d8de" offset="0.64"/>

            <stop stop-color="#9aa0a8" offset="1"/>

        </linearGradient>

        <linearGradient x1="0%" y2="0%" x2="100%" y1="0%" id="lg3_219">

            <stop stop-color="#626974" offset="0"/>

            <stop stop-color="#ccd0d5" offset="0.66"/>

            <stop stop-color="#5e6670" offset="1"/>

        </linearGradient>

        <radialGradient fy="51" r="72.6" id="rg1" cy="51" cx="51" gradientUnits="userSpaceOnUse" fx="51">

            <stop stop-color="#c7cbd1" offset="0"/>

            <stop stop-color="#c4c7cd" offset="0.91"/>

            <stop stop-color="#d4d8dd" offset="0.74"/>

            <stop stop-color="#b6bcc4" offset="0.54"/>

        </radialGradient>

    </defs>

    <g transform="matrix(-1,0,0,1,153,1)">

        <g transform="matrix(-1,0,0,1,74.4,31.2)">

            <path transform="matrix(0,-1,-1,0,68.3,40.6)" id="shape1" fill="url(#lg1_219)" d="M0,0L39.1,0L39.1,68.3L0,68.3L0,0z"/>

            <path transform="matrix(0,-1,-1,0,74.4,42.9)" id="shape2" fill="url(#lg2_219)" d="M1.4,-0L41.5,-0C42.2,-0,42.9,1.3,42.9,3C42.9,4.7,42.2,6.1,41.5,6.1L1.4,6.1C.6,6.1,0,4.7,0,3C0,1.3,.6,-0,1.4,-0z"/>

            <path transform="matrix(0,-1,-1,0,70.3,42.7)" id="shape3" fill="url(#lg3_219)" d="M42.5,0C42.4,1.1,41.9,1.9,41.1,1.9L1.4,1.9C.6,1.9,.1,1,0,0C0,0,42.5,0,42.5,0z"/>

            <path transform="matrix(0,-1,-1,0,74.1,42.2)" id="shape4" fill="#ffffff" fill-opacity="0.32" d="M.7,0L40.8,0C41.2,0,41.5,.3,41.5,.6C41.5,.9,41.2,1.1,40.8,1.1L.7,1.1C.3,1.1,0,.9,0,.6C0,.3,.3,0,.7,0z"/>

        </g>

        <g transform="translate(77.55,0)">

            <path transform="matrix(0,-1,-1,0,68.3,40.7)" id="shape5" fill="url(#lg1_219)" d="M0,0L39.1,0L39.1,68.3L0,68.3L0,0z"/>

            <path transform="matrix(0,-1,-1,0,74.4,42.9)" id="shape6" fill="url(#lg2_219)" d="M1.4,-0L41.5,-0C42.2,-0,42.9,1.3,42.9,3C42.9,4.7,42.2,6.1,41.5,6.1L1.4,6.1C.6,6.1,0,4.7,0,3C0,1.3,.6,-0,1.4,-0z"/>

            <path transform="matrix(0,-1,-1,0,70.3,42.7)" id="shape7" fill="url(#lg3_219)" d="M42.5,0C42.4,1.1,41.9,1.9,41.1,1.9L1.4,1.9C.6,1.9,.1,1,0,0C0,0,42.5,0,42.5,0z"/>

            <path transform="matrix(0,-1,-1,0,74.1,42.2)" id="shape8" fill="#ffffff" fill-opacity="0.35" d="M.7,0L40.8,0C41.2,0,41.5,.3,41.5,.6C41.5,.9,41.2,1.1,40.8,1.1L.7,1.1C.3,1.1,0,.9,0,.6C0,.3,.3,0,.7,0z"/>

        </g>

        <g transform="translate(26.19,1.31)">

            <path transform="matrix(0,-1,-1,0,102.8,102.6)" id="shape9" fill="url(#rg1)" stroke="#d4d6db" stroke-width="0.25" d="M0,51.4C0,23,23,0,51.3,0C79.7,0,102.6,23,102.6,51.4C102.6,79.8,79.7,102.8,51.3,102.8C23,102.8,0,79.8,0,51.4z"/>

            <path transform="matrix(0,-1,-1,0,94.2,94)" id="shape10" fill="#ffffff" fill-opacity="0.27" d="M0,42.7C0,19.1,19.1,0,42.6,0C66.2,0,85.3,19.1,85.3,42.7C85.3,66.3,66.2,85.5,42.6,85.5C19.1,85.5,0,66.3,0,42.7z"/>

            <path transform="matrix(0,-1,-1,0,85.9,93.9)" id="shape11" fill="#ffffff" fill-opacity="0.13" d="M0,34.5C-0.3,13,17.1,0,17.1,0L73.1,63.9C73.1,63.9,62.3,77.3,42.6,77.3C19.1,77.3,0,58.1,0,34.5z"/>

        </g>

    </g>

</svg>
<rect width="154" height="106" stroke="none" stroke-width="2" fill="white" fill-opacity="0" style="cursor: default;" onmousedown="editProcess(component1550092257640, evt)"/>
</g>
</g>
</g>
<image id="imgDragArrow" href="Images/ImgDragArrow.png" class="dragTargetObj" width="25" height="25" x="-12.5" y="-12.5" style="visibility: hidden; cursor: nw-resize;"/>
</svg>
